<svg xmlns="http://www.w3.org/2000/svg" viewBox="0 0 192 192">
  <defs>
    <linearGradient id="bg" x1="0%" y1="0%" x2="100%" y2="100%">
      <stop offset="0%" stop-color="#1a1f2e"/><stop offset="100%" stop-color="#0d1117"/>
    </linearGradient>
    <linearGradient id="gold" x1="0%" y1="0%" x2="100%" y2="100%">
      <stop offset="0%" stop-color="#FFD060"/><stop offset="50%" stop-color="#D4A017"/><stop offset="100%" stop-color="#A07010"/>
    </linearGradient>
    <linearGradient id="wall" x1="0%" y1="0%" x2="100%" y2="100%">
      <stop offset="0%" stop-color="#E8C060"/><stop offset="100%" stop-color="#B08820"/>
    </linearGradient>
    <linearGradient id="gs" x1="0%" y1="0%" x2="100%" y2="100%">
      <stop offset="0%" stop-color="white" stop-opacity="0.15"/><stop offset="100%" stop-color="white" stop-opacity="0"/>
    </linearGradient>
    <filter id="sh"><feDropShadow dx="0" dy="3" stdDeviation="6" flood-color="#D4A017" flood-opacity="0.4"/></filter>
  </defs>
  <rect width="192" height="192" rx="42" fill="url(#bg)"/>
  <rect width="192" height="192" rx="42" fill="url(#gs)"/>
  <rect x="2" y="2" width="188" height="188" rx="41" fill="none" stroke="#D4A017" stroke-width="1" stroke-opacity="0.3"/>
  <g filter="url(#sh)">
    <ellipse cx="96" cy="148" rx="42" ry="7" fill="#000" fill-opacity="0.35"/>
    <rect x="54" y="92" width="82" height="56" rx="4" fill="url(#wall)"/>
    <polygon points="136,92 150,80 150,126 136,138" fill="#9A7418"/>
    <polygon points="46,95 96,50 146,95" fill="#FFE088"/>
    <polygon points="146,95 160,83 110,38 96,50" fill="#A07010"/>
    <rect x="120" y="55" width="11" height="22" rx="2" fill="#8A6410"/>
    <rect x="83" y="112" width="28" height="36" rx="4" fill="#141820"/>
    <line x1="97" y1="114" x2="97" y2="148" stroke="#D4A017" stroke-width="0.8" stroke-opacity="0.4"/>
    <line x1="83" y1="130" x2="111" y2="130" stroke="#D4A017" stroke-width="0.8" stroke-opacity="0.4"/>
    <circle cx="89" cy="132" r="2" fill="#D4A017"/>
    <rect x="58" y="100" width="24" height="20" rx="3" fill="#162030"/>
    <rect x="118" y="100" width="24" height="20" rx="3" fill="#162030"/>
  </g>
  <circle cx="34" cy="34" r="2" fill="#FFD060" fill-opacity="0.7"/>
  <circle cx="158" cy="30" r="1.5" fill="#FFD060" fill-opacity="0.5"/>
</svg>
