<svg xmlns="http://www.w3.org/2000/svg" viewBox="0 0 96 96"><use href="/icons/icon-128.svg#root"/><defs><linearGradient id="bg" x1="0%" y1="0%" x2="100%" y2="100%"><stop offset="0%" stop-color="#1a1f2e"/><stop offset="100%" stop-color="#0d1117"/></linearGradient><linearGradient id="wall" x1="0%" y1="0%" x2="100%" y2="100%"><stop offset="0%" stop-color="#E8C060"/><stop offset="100%" stop-color="#B08820"/></linearGradient><linearGradient id="gs" x1="0%" y1="0%" x2="100%" y2="100%"><stop offset="0%" stop-color="white" stop-opacity="0.15"/><stop offset="100%" stop-color="white" stop-opacity="0"/></linearGradient><filter id="sh"><feDropShadow dx="0" dy="2" stdDeviation="3" flood-color="#D4A017" flood-opacity="0.4"/></filter></defs><rect width="96" height="96" rx="20" fill="url(#bg)"/><rect width="96" height="96" rx="20" fill="url(#gs)"/><g filter="url(#sh)"><rect x="27" y="46" width="42" height="28" rx="2" fill="url(#wall)"/><polygon points="69,46 76,40 76,63 69,69" fill="#9A7418"/><polygon points="22,47 48,25 74,47" fill="#FFE088"/><polygon points="74,47 81,41 55,19 48,25" fill="#A07010"/><rect x="40" y="56" width="15" height="18" rx="2" fill="#141820"/><line x1="47.5" y1="57" x2="47.5" y2="74" stroke="#D4A017" stroke-width="0.6" stroke-opacity="0.4"/><rect x="28" y="50" width="12" height="10" rx="2" fill="#162030"/><rect x="60" y="50" width="12" height="10" rx="2" fill="#162030"/></g></svg>
